<?xml version="1.0" standalone="no"?>
<!DOCTYPE svg PUBLIC "-//W3C//DTD SVG 20010904//EN"
 "http://www.w3.org/TR/2001/REC-SVG-20010904/DTD/svg10.dtd">
<svg version="1.0" xmlns="http://www.w3.org/2000/svg"
 width="299.000000pt" height="299.000000pt" viewBox="0 0 299.000000 299.000000"
 preserveAspectRatio="xMidYMid meet">
<metadata>
Created by potrace 1.11, written by Peter Selinger 2001-2013
</metadata>
<g transform="translate(0.000000,299.000000) scale(0.100000,-0.100000)"
fill="#000000" stroke="none">
<path d="M1445 2769 c-195 -112 -713 -243 -1158 -292 l-112 -12 -8 -65 c-9
-73 -2 -310 14 -445 68 -596 358 -1125 824 -1503 155 -125 444 -302 494 -302
32 0 182 68 304 139 126 72 191 119 297 213 352 311 583 755 684 1318 22 122
46 396 46 522 l0 108 -77 0 c-93 0 -200 19 -398 72 -156 41 -606 186 -758 244
-49 19 -92 34 -95 33 -4 -1 -29 -14 -57 -30z"/>
</g>
</svg>
